<?xml version="1.0" encoding="UTF-8" standalone="no"?>
<!DOCTYPE svg PUBLIC "-//W3C//DTD SVG 1.1//EN"
 "http://www.w3.org/Graphics/SVG/1.1/DTD/svg11.dtd">
<!-- Generated by graphviz version 6.0.1 (0)
 -->
<!-- Title: G Pages: 1 -->
<svg width="578pt" height="550pt"
 viewBox="0.00 0.00 577.50 550.00" xmlns="http://www.w3.org/2000/svg" xmlns:xlink="http://www.w3.org/1999/xlink">
<g id="graph0" class="graph" transform="scale(1 1) rotate(0) translate(4 546)">
<title>G</title><style>.edge>path:hover{stroke-width:8}</style>
<polygon fill="white" stroke="none" points="-4,4 -4,-546 573.5,-546 573.5,4 -4,4"/>
<!-- start -->
<g id="node1" class="node">
<title>start</title><style>.edge>path:hover{stroke-width:8}</style>
<ellipse fill="#854096" stroke="black" cx="288" cy="-18" rx="31.58" ry="18"/>
<text text-anchor="middle" x="288" y="-15.5" font-family="Helvetica,sans-Serif" font-size="10.00" fill="#ffffff">start</text>
</g>
<!-- Config -->
<g id="node2" class="node">
<title>Config</title><style>.edge>path:hover{stroke-width:8}</style>
<polygon fill="#db2f2f" stroke="black" points="62,-217 59,-221 38,-221 35,-217 0,-217 0,-181 62,-181 62,-217"/>
<text text-anchor="middle" x="31" y="-196.5" font-family="Helvetica,sans-Serif" font-size="10.00" fill="#ffffff">Config</text>
</g>
<!-- Config&#45;&gt;start -->
<g id="edge2" class="edge">
<title>Config&#45;&gt;start</title><style>.edge>path:hover{stroke-width:8}</style>
<path fill="none" stroke="black" d="M55.43,-180.77C70.47,-170.26 90.22,-156.65 108,-145"/>
<path fill="none" stroke="black" d="M108,-144C135.68,-125.86 104.31,-96.09 127,-72 157.94,-39.15 209.59,-26.63 246.03,-21.88"/>
<polygon fill="#db2f2f" stroke="black" points="246.81,-25.32 256.35,-20.69 246.01,-18.36 246.81,-25.32"/>
</g>
<!-- databases -->
<g id="node6" class="node">
<title>databases</title><style>.edge>path:hover{stroke-width:8}</style>
<polygon fill="#59883a" stroke="black" points="330,-108 327,-112 306,-112 303,-108 246,-108 246,-72 330,-72 330,-108"/>
<text text-anchor="middle" x="288" y="-87.5" font-family="Helvetica,sans-Serif" font-size="10.00" fill="#ffffff">databases</text>
</g>
<!-- Config&#45;&gt;databases -->
<g id="edge1" class="edge">
<title>Config&#45;&gt;databases</title><style>.edge>path:hover{stroke-width:8}</style>
<path fill="none" stroke="black" d="M108,-144C155.25,-113.03 177.75,-124.11 236.07,-108.08"/>
<polygon fill="#db2f2f" stroke="black" points="237.13,-111.42 245.75,-105.26 235.17,-104.7 237.13,-111.42"/>
</g>
<!-- HttpMessages -->
<g id="node3" class="node">
<title>HttpMessages</title><style>.edge>path:hover{stroke-width:8}</style>
<polygon fill="#c07340" stroke="black" points="267.5,-217 264.5,-221 243.5,-221 240.5,-217 160.5,-217 160.5,-181 267.5,-181 267.5,-217"/>
<text text-anchor="middle" x="214" y="-196.5" font-family="Helvetica,sans-Serif" font-size="10.00" fill="#000000">HttpMessages</text>
</g>
<!-- HttpMessages&#45;&gt;databases -->
<g id="edge3" class="edge">
<title>HttpMessages&#45;&gt;databases</title><style>.edge>path:hover{stroke-width:8}</style>
<path fill="none" stroke="black" d="M264.02,-181C278.65,-172.87 291.85,-161.26 296,-145"/>
<path fill="none" stroke="black" d="M296,-144C298.1,-135.76 297.68,-126.64 296.27,-118.33"/>
<polygon fill="#c07340" stroke="black" points="299.65,-117.37 294.08,-108.36 292.81,-118.88 299.65,-117.37"/>
</g>
<!-- asgiref -->
<g id="node4" class="node">
<title>asgiref</title><style>.edge>path:hover{stroke-width:8}</style>
<polygon fill="#b6a253" stroke="black" points="298.5,-361 295.5,-365 274.5,-365 271.5,-361 229.5,-361 229.5,-325 298.5,-325 298.5,-361"/>
<text text-anchor="middle" x="264" y="-340.5" font-family="Helvetica,sans-Serif" font-size="10.00" fill="#000000">asgiref</text>
</g>
<!-- flask -->
<g id="node7" class="node">
<title>flask</title><style>.edge>path:hover{stroke-width:8}</style>
<polygon fill="#039503" stroke="black" points="385,-217 382,-221 361,-221 358,-217 331,-217 331,-181 385,-181 385,-217"/>
<text text-anchor="middle" x="358" y="-196.5" font-family="Helvetica,sans-Serif" font-size="10.00" fill="#ffffff">flask</text>
</g>
<!-- asgiref&#45;&gt;flask -->
<g id="edge4" class="edge">
<title>asgiref&#45;&gt;flask</title><style>.edge>path:hover{stroke-width:8}</style>
<path fill="none" stroke="black" d="M293.5,-324.91C318.37,-309.49 350.06,-287 351,-272"/>
</g>
<!-- blinker -->
<g id="node5" class="node">
<title>blinker</title><style>.edge>path:hover{stroke-width:8}</style>
<polygon fill="#a6c040" stroke="black" points="385.5,-361 382.5,-365 361.5,-365 358.5,-361 316.5,-361 316.5,-325 385.5,-325 385.5,-361"/>
<text text-anchor="middle" x="351" y="-340.5" font-family="Helvetica,sans-Serif" font-size="10.00" fill="#000000">blinker</text>
</g>
<!-- blinker&#45;&gt;flask -->
<g id="edge5" class="edge">
<title>blinker&#45;&gt;flask</title><style>.edge>path:hover{stroke-width:8}</style>
<path fill="none" stroke="black" d="M350.4,-324.72C350.05,-310.54 349.88,-289.95 351,-272"/>
</g>
<!-- databases&#45;&gt;start -->
<g id="edge6" class="edge">
<title>databases&#45;&gt;start</title><style>.edge>path:hover{stroke-width:8}</style>
<path fill="none" stroke="black" d="M288,-71.7C288,-63.98 288,-54.71 288,-46.11"/>
<polygon fill="#59883a" stroke="black" points="291.5,-46.1 288,-36.1 284.5,-46.1 291.5,-46.1"/>
</g>
<!-- flask&#45;&gt;start -->
<g id="edge8" class="edge">
<title>flask&#45;&gt;start</title><style>.edge>path:hover{stroke-width:8}</style>
<path fill="none" stroke="black" d="M355.59,-180.94C354.69,-170.38 354.58,-156.65 358,-145"/>
<path fill="none" stroke="black" d="M358,-144C369.55,-104.64 337.16,-64.11 312.66,-40.25"/>
<polygon fill="#039503" stroke="black" points="315.05,-37.7 305.36,-33.41 310.26,-42.8 315.05,-37.7"/>
</g>
<!-- flaskcors -->
<g id="node8" class="node">
<title>flaskcors</title><style>.edge>path:hover{stroke-width:8}</style>
<polygon fill="#46a46c" stroke="black" points="470,-108 467,-112 446,-112 443,-108 386,-108 386,-72 470,-72 470,-108"/>
<text text-anchor="middle" x="428" y="-87.5" font-family="Helvetica,sans-Serif" font-size="10.00" fill="#000000">flaskcors</text>
</g>
<!-- flask&#45;&gt;flaskcors -->
<g id="edge7" class="edge">
<title>flask&#45;&gt;flaskcors</title><style>.edge>path:hover{stroke-width:8}</style>
<path fill="none" stroke="black" d="M358,-144C361.62,-131.65 370.47,-121.68 380.7,-113.87"/>
<polygon fill="#039503" stroke="black" points="382.88,-116.61 389.13,-108.06 378.91,-110.85 382.88,-116.61"/>
</g>
<!-- flaskcors&#45;&gt;start -->
<g id="edge9" class="edge">
<title>flaskcors&#45;&gt;start</title><style>.edge>path:hover{stroke-width:8}</style>
<path fill="none" stroke="black" d="M393.75,-71.88C371.23,-60.61 341.95,-45.98 319.92,-34.96"/>
<polygon fill="#46a46c" stroke="black" points="321.46,-31.82 310.96,-30.48 318.33,-38.08 321.46,-31.82"/>
</g>
<!-- jinja2 -->
<g id="node9" class="node">
<title>jinja2</title><style>.edge>path:hover{stroke-width:8}</style>
<polygon fill="#33ccae" stroke="black" points="466,-361 463,-365 442,-365 439,-361 404,-361 404,-325 466,-325 466,-361"/>
<text text-anchor="middle" x="435" y="-340.5" font-family="Helvetica,sans-Serif" font-size="10.00" fill="#000000">jinja2</text>
</g>
<!-- jinja2&#45;&gt;flask -->
<g id="edge10" class="edge">
<title>jinja2&#45;&gt;flask</title><style>.edge>path:hover{stroke-width:8}</style>
<path fill="none" stroke="black" d="M405.66,-324.77C381.07,-309.25 350.08,-286.68 351,-272"/>
</g>
<!-- markupsafe -->
<g id="node10" class="node">
<title>markupsafe</title><style>.edge>path:hover{stroke-width:8}</style>
<polygon fill="#17aed3" stroke="black" points="547,-470 544,-474 523,-474 520,-470 455,-470 455,-434 547,-434 547,-470"/>
<text text-anchor="middle" x="501" y="-449.5" font-family="Helvetica,sans-Serif" font-size="10.00" fill="#000000">markupsafe</text>
</g>
<!-- markupsafe&#45;&gt;flask -->
<g id="edge11" class="edge">
<title>markupsafe&#45;&gt;flask</title><style>.edge>path:hover{stroke-width:8}</style>
<path fill="none" stroke="black" d="M494,-397C486.77,-374.58 502.98,-365.78 494,-344"/>
<path fill="none" stroke="black" d="M494,-342C467.03,-276.58 346.59,-342.62 351,-272"/>
</g>
<!-- markupsafe&#45;&gt;jinja2 -->
<g id="edge12" class="edge">
<title>markupsafe&#45;&gt;jinja2</title><style>.edge>path:hover{stroke-width:8}</style>
<path fill="none" stroke="black" d="M500.31,-433.95C499.5,-423.39 497.76,-409.66 494,-398"/>
<path fill="none" stroke="black" d="M494,-397C490.24,-385.33 481.95,-375.36 472.74,-367.33"/>
<polygon fill="#17aed3" stroke="black" points="474.87,-364.55 464.87,-361.04 470.5,-370.02 474.87,-364.55"/>
</g>
<!-- werkzeug -->
<g id="node15" class="node">
<title>werkzeug</title><style>.edge>path:hover{stroke-width:8}</style>
<polygon fill="#ef0663" stroke="black" points="532.5,-289 529.5,-293 508.5,-293 505.5,-289 455.5,-289 455.5,-253 532.5,-253 532.5,-289"/>
<text text-anchor="middle" x="494" y="-268.5" font-family="Helvetica,sans-Serif" font-size="10.00" fill="#ffffff">werkzeug</text>
</g>
<!-- markupsafe&#45;&gt;werkzeug -->
<g id="edge13" class="edge">
<title>markupsafe&#45;&gt;werkzeug</title><style>.edge>path:hover{stroke-width:8}</style>
<path fill="none" stroke="black" d="M494,-342C488.48,-328.61 488.1,-312.52 489.27,-299.15"/>
<polygon fill="#17aed3" stroke="black" points="492.76,-299.45 490.47,-289.11 485.81,-298.62 492.76,-299.45"/>
</g>
<!-- models -->
<g id="node11" class="node">
<title>models</title><style>.edge>path:hover{stroke-width:8}</style>
<polygon fill="#0552c7" stroke="black" points="142,-217 139,-221 118,-221 115,-217 80,-217 80,-181 142,-181 142,-217"/>
<text text-anchor="middle" x="111" y="-196.5" font-family="Helvetica,sans-Serif" font-size="10.00" fill="#ffffff">models</text>
</g>
<!-- models&#45;&gt;databases -->
<g id="edge14" class="edge">
<title>models&#45;&gt;databases</title><style>.edge>path:hover{stroke-width:8}</style>
<path fill="none" stroke="black" d="M223,-144C231.69,-132.97 243.05,-122.73 253.85,-114.25"/>
<polygon fill="#0552c7" stroke="black" points="256.08,-116.95 261.93,-108.13 251.85,-111.37 256.08,-116.95"/>
</g>
<!-- repository -->
<g id="node13" class="node">
<title>repository</title><style>.edge>path:hover{stroke-width:8}</style>
<polygon fill="#573091" stroke="black" points="228,-108 225,-112 204,-112 201,-108 136,-108 136,-72 228,-72 228,-108"/>
<text text-anchor="middle" x="182" y="-87.5" font-family="Helvetica,sans-Serif" font-size="10.00" fill="#ffffff">repository</text>
</g>
<!-- models&#45;&gt;repository -->
<g id="edge15" class="edge">
<title>models&#45;&gt;repository</title><style>.edge>path:hover{stroke-width:8}</style>
<path fill="none" stroke="black" d="M142.06,-184.12C174.24,-169.62 220.25,-148.5 223,-145"/>
<path fill="none" stroke="black" d="M223,-144C230.52,-134.46 225.08,-123.89 216.02,-114.71"/>
<polygon fill="#0552c7" stroke="black" points="218.31,-112.07 208.53,-108.01 213.64,-117.28 218.31,-112.07"/>
</g>
<!-- mysql -->
<g id="node12" class="node">
<title>mysql</title><style>.edge>path:hover{stroke-width:8}</style>
<polygon fill="#3b3bce" stroke="black" points="323,-289 320,-293 299,-293 296,-289 269,-289 269,-253 323,-253 323,-289"/>
<text text-anchor="middle" x="296" y="-268.5" font-family="Helvetica,sans-Serif" font-size="10.00" fill="#ffffff">mysql</text>
</g>
<!-- mysql&#45;&gt;databases -->
<g id="edge16" class="edge">
<title>mysql&#45;&gt;databases</title><style>.edge>path:hover{stroke-width:8}</style>
<path fill="none" stroke="black" d="M293.34,-252.68C290.19,-228.24 286.46,-182.43 296,-145"/>
</g>
<!-- repository&#45;&gt;start -->
<g id="edge17" class="edge">
<title>repository&#45;&gt;start</title><style>.edge>path:hover{stroke-width:8}</style>
<path fill="none" stroke="black" d="M207.93,-71.88C223.55,-61.56 243.45,-48.42 259.51,-37.81"/>
<polygon fill="#573091" stroke="black" points="261.57,-40.65 267.98,-32.22 257.71,-34.81 261.57,-40.65"/>
</g>
<!-- typingextensions -->
<g id="node14" class="node">
<title>typingextensions</title><style>.edge>path:hover{stroke-width:8}</style>
<polygon fill="#f910cb" stroke="black" points="569.5,-542 566.5,-546 545.5,-546 542.5,-542 432.5,-542 432.5,-506 569.5,-506 569.5,-542"/>
<text text-anchor="middle" x="501" y="-521.5" font-family="Helvetica,sans-Serif" font-size="10.00" fill="#ffffff">typingextensions</text>
</g>
<!-- typingextensions&#45;&gt;flask -->
<g id="edge18" class="edge">
<title>typingextensions&#45;&gt;flask</title><style>.edge>path:hover{stroke-width:8}</style>
<path fill="none" stroke="black" d="M478.02,-505.87C466.86,-496.43 454.12,-483.84 446,-470 429.24,-441.46 444.4,-426.15 427,-398"/>
<path fill="none" stroke="black" d="M427,-397C368.33,-324.35 280.11,-432.46 220,-361 209.7,-348.76 210.57,-337.93 220,-325 257,-274.25 347.09,-334.68 351,-272"/>
<path fill="none" stroke="black" d="M351,-270C351.57,-255.89 353.05,-240.25 354.51,-227.33"/>
<polygon fill="#f910cb" stroke="black" points="358,-227.56 355.7,-217.22 351.05,-226.74 358,-227.56"/>
</g>
<!-- typingextensions&#45;&gt;jinja2 -->
<g id="edge19" class="edge">
<title>typingextensions&#45;&gt;jinja2</title><style>.edge>path:hover{stroke-width:8}</style>
<path fill="none" stroke="black" d="M427,-397C422.29,-389.38 422.25,-379.99 424.04,-371.24"/>
<polygon fill="#f910cb" stroke="black" points="427.47,-371.99 426.81,-361.41 420.73,-370.09 427.47,-371.99"/>
</g>
<!-- typingextensions&#45;&gt;markupsafe -->
<g id="edge20" class="edge">
<title>typingextensions&#45;&gt;markupsafe</title><style>.edge>path:hover{stroke-width:8}</style>
<path fill="none" stroke="black" d="M501,-505.7C501,-497.98 501,-488.71 501,-480.11"/>
<polygon fill="#f910cb" stroke="black" points="504.5,-480.1 501,-470.1 497.5,-480.1 504.5,-480.1"/>
</g>
<!-- typingextensions&#45;&gt;werkzeug -->
<g id="edge21" class="edge">
<title>typingextensions&#45;&gt;werkzeug</title><style>.edge>path:hover{stroke-width:8}</style>
<path fill="none" stroke="black" d="M526.38,-505.95C537.71,-496.79 549.88,-484.4 556,-470 562.26,-455.28 558.91,-449.73 556,-434 546.81,-384.3 523.02,-330.14 507.73,-298.72"/>
<polygon fill="#f910cb" stroke="black" points="510.66,-296.77 503.09,-289.36 504.39,-299.87 510.66,-296.77"/>
</g>
<!-- werkzeug&#45;&gt;flask -->
<g id="edge22" class="edge">
<title>werkzeug&#45;&gt;flask</title><style>.edge>path:hover{stroke-width:8}</style>
<path fill="none" stroke="black" d="M460.73,-252.88C440.68,-242.56 415.13,-229.4 394.52,-218.8"/>
<polygon fill="#ef0663" stroke="black" points="395.93,-215.59 385.44,-214.12 392.73,-221.81 395.93,-215.59"/>
</g>
<!-- werkzeug&#45;&gt;flaskcors -->
<g id="edge23" class="edge">
<title>werkzeug&#45;&gt;flaskcors</title><style>.edge>path:hover{stroke-width:8}</style>
<path fill="none" stroke="black" d="M487.67,-252.84C476.14,-221.56 451.63,-155.09 437.88,-117.8"/>
<polygon fill="#ef0663" stroke="black" points="441.05,-116.28 434.31,-108.11 434.48,-118.7 441.05,-116.28"/>
</g>
</g>
</svg>
